
<svg width="48" height="48" viewBox="0 0 48 48" fill="none" xmlns="http://www.w3.org/2000/svg">
<g style="mix-blend-mode:overlay">
<mask id="mask0_149_549" style="mask-type:luminance" maskUnits="userSpaceOnUse" x="3" y="3" width="42" height="42">
<path d="M5 17H43L38.8 43H9.2L5 17Z" fill="white" stroke="white" stroke-width="4" stroke-linecap="round" stroke-linejoin="round"/>
<path d="M35 17C35 10.373 30.075 5 24 5C17.925 5 13 10.373 13 17" stroke="white" stroke-width="4" stroke-linecap="round" stroke-linejoin="round"/>
<path d="M17 28C18.1046 28 19 27.1046 19 26C19 24.8954 18.1046 24 17 24C15.8954 24 15 24.8954 15 26C15 27.1046 15.8954 28 17 28Z" fill="black"/>
<path d="M18 33C18 33 20 36 24 36C28 36 30 33 30 33" stroke="black" stroke-width="4" stroke-linecap="round" stroke-linejoin="round"/>
<path d="M31 28C32.1046 28 33 27.1046 33 26C33 24.8954 32.1046 24 31 24C29.8954 24 29 24.8954 29 26C29 27.1046 29.8954 28 31 28Z" fill="black"/>
</mask>
<g mask="url(#mask0_149_549)">
<path d="M0 0H48V48H0V0Z" fill="black"/>
</g>
</g>
</svg>
