<svg width="158" height="98" viewBox="0 0 128 68" fill="none" xmlns="http://www.w3.org/2000/svg">
<g style="mix-blend-mode:color-burn">
<path d="M2 43.202V10C2 5.58172 5.58172 2 10 2H104.792C106.962 2 109.059 2.78375 110.696 4.20697L113.534 6.67366C114.228 7.27613 115.009 7.76894 115.851 8.13497L120.587 10.1928C123.874 11.6211 126 14.8634 126 18.4472V33.8069C126 37.76 123.42 41.2504 119.641 42.4106L106.79 46.3557C104.837 46.9552 103.147 48.2011 101.996 49.8887L99.7353 53.2033C98.5299 54.9709 97.1912 56.6438 95.7308 58.2074L93.3262 60.7821C90.0178 64.3243 84.4985 64.6104 80.8417 61.4292L74.2696 55.7118C71.0222 52.8867 66.229 52.7565 62.833 55.401L55.8687 60.824C52.1933 63.686 46.9413 63.2705 43.7617 59.8661L41.8223 57.7895C38.2842 54.0013 32.1022 54.6611 29.4433 59.1106C26.9487 63.2852 21.2808 64.1784 17.6233 60.9731L5.06831 49.9707C3.11827 48.2618 2 45.7949 2 43.202Z" fill="white"/>
<path d="M2 43.202V10C2 5.58172 5.58172 2 10 2H104.792C106.962 2 109.059 2.78375 110.696 4.20697L113.534 6.67366C114.228 7.27613 115.009 7.76894 115.851 8.13497L120.587 10.1928C123.874 11.6211 126 14.8634 126 18.4472V33.8069C126 37.76 123.42 41.2504 119.641 42.4106L106.79 46.3557C104.837 46.9552 103.147 48.2011 101.996 49.8887L99.7353 53.2033C98.5299 54.9709 97.1912 56.6438 95.7308 58.2074L93.3262 60.7821C90.0178 64.3243 84.4985 64.6104 80.8417 61.4292L74.2696 55.7118C71.0222 52.8867 66.229 52.7565 62.833 55.401L55.8687 60.824C52.1933 63.686 46.9413 63.2705 43.7617 59.8661L41.8223 57.7895C38.2842 54.0013 32.1022 54.6611 29.4433 59.1106C26.9487 63.2852 21.2808 64.1784 17.6233 60.9731L5.06831 49.9707C3.11827 48.2618 2 45.7949 2 43.202Z" stroke="black" stroke-width="3"/>
</g>
<path d="M10.8486 9.8444H10.3486V10.3444V42.081V42.581H10.8486H20.9038H21.4038V42.081V29.9672H31.1385H31.6385V29.4672V23.0031V22.5031H31.1385H21.4038V16.7249H32.575H33.075V16.2249V10.3444V9.8444H32.575H10.8486ZM37.7597 9.8444H37.2597V10.3444V42.081V42.581H37.7597H45.3684H45.8684V42.081V26.7801L56.8553 42.3691L57.0047 42.581H57.264H67.2294H67.7294V42.081V10.3444V9.8444H67.2294H59.5533H59.0533V10.3444V24.7923L47.8767 10.0424L47.7266 9.8444H47.4782H37.7597ZM77.8082 37.7218L77.8101 37.7239C79.159 39.2279 80.7789 40.4129 82.6646 41.2785C84.5625 42.1497 86.6622 42.581 88.9557 42.581H99.0778C100.624 42.581 101.878 41.3272 101.878 39.7804C101.878 38.2337 100.624 36.9799 99.0778 36.9799H88.9557C87.4341 36.9799 86.0795 36.6932 84.8825 36.13C83.6889 35.5615 82.677 34.7897 81.8417 33.8135C81.0172 32.8176 80.3734 31.6542 79.9131 30.3177C79.4677 28.966 79.2434 27.5238 79.2434 25.9883C79.2434 24.4524 79.4678 23.018 79.9128 21.6821C80.3734 20.3445 81.0174 19.1886 81.8415 18.208C82.6777 17.216 83.6901 16.4367 84.8838 15.8683L84.886 15.8672C86.0822 15.2902 87.4355 14.9966 88.9557 14.9966H99.0778C100.624 14.9966 101.878 13.7428 101.878 12.1961C101.878 10.6494 100.624 9.39551 99.0778 9.39551H88.9557C86.6616 9.39551 84.5614 9.83458 82.6633 10.7211C80.7769 11.5871 79.157 12.7802 77.8084 14.2994L77.8082 14.2996C76.4761 15.8021 75.4497 17.5642 74.7266 19.5798C74.0025 21.5829 73.6423 23.7203 73.6423 25.9883C73.6423 28.2712 74.0025 30.4235 74.7266 32.4416C75.4497 34.4572 76.4761 36.2193 77.8082 37.7218ZM104.247 21.8871H115.569C117.11 21.8871 118.359 20.6383 118.359 19.0978C118.359 17.5573 117.11 16.3084 115.569 16.3084H104.247C102.707 16.3084 101.458 17.5573 101.458 19.0978C101.458 20.6383 102.707 21.8871 104.247 21.8871ZM104.258 35.6905H115.558C117.105 35.6905 118.359 34.4367 118.359 32.89C118.359 31.3433 117.105 30.0894 115.558 30.0894H104.258C102.712 30.0894 101.458 31.3433 101.458 32.89C101.458 34.4367 102.712 35.6905 104.258 35.6905Z" fill="black" stroke="black"/>
</svg>
