<svg width="31" height="31" viewBox="0 0 31 31" fill="none" xmlns="http://www.w3.org/2000/svg">
<g style="mix-blend-mode:color-burn" opacity="0.8" clip-path="url(#clip0_124_16741)">
<path fill-rule="evenodd" clip-rule="evenodd" d="M15.4998 18.2397L22.3495 25.0907C22.713 25.4542 23.206 25.6584 23.72 25.6584C24.234 25.6584 24.727 25.4542 25.0904 25.0907C25.4539 24.7272 25.6581 24.2343 25.6581 23.7202C25.6581 23.2062 25.4539 22.7133 25.0904 22.3498L18.2381 15.5001L25.0891 8.65037C25.269 8.4704 25.4117 8.25676 25.509 8.02165C25.6064 7.78654 25.6564 7.53456 25.6564 7.2801C25.6563 7.02565 25.6061 6.77369 25.5087 6.53863C25.4113 6.30356 25.2685 6.08999 25.0885 5.9101C24.9085 5.73022 24.6949 5.58754 24.4598 5.49022C24.2247 5.3929 23.9727 5.34284 23.7182 5.3429C23.4638 5.34296 23.2118 5.39313 22.9768 5.49057C22.7417 5.588 22.5281 5.73078 22.3482 5.91075L15.4998 12.7605L8.65011 5.91075C8.47146 5.72561 8.25774 5.57791 8.02141 5.47626C7.78507 5.37461 7.53086 5.32104 7.2736 5.31868C7.01634 5.31633 6.76119 5.36523 6.52304 5.46254C6.28488 5.55984 6.06849 5.70361 5.88649 5.88544C5.70448 6.06727 5.56052 6.28353 5.46299 6.52159C5.36545 6.75966 5.31631 7.01476 5.31842 7.27202C5.32054 7.52928 5.37387 7.78354 5.47529 8.01997C5.57672 8.2564 5.72422 8.47027 5.90919 8.64908L12.7615 15.5001L5.91048 22.3498C5.54701 22.7133 5.34282 23.2062 5.34282 23.7202C5.34282 24.2343 5.54701 24.7272 5.91048 25.0907C6.27395 25.4542 6.76692 25.6584 7.28094 25.6584C7.79496 25.6584 8.28793 25.4542 8.6514 25.0907L15.4998 18.2384V18.2397Z" fill="#FF285C" fill-opacity="0.8"/>
</g>
<defs>
<clipPath id="clip0_124_16741">
<rect width="31" height="31" fill="white"/>
</clipPath>
</defs>
</svg>
