<svg width="124" height="66" viewBox="0 0 124 66" fill="none" xmlns="http://www.w3.org/2000/svg">
<g style="mix-blend-mode:color-burn">
<path d="M0 41.202V8C0 3.58172 3.58172 0 8 0H102.792C104.962 0 107.059 0.783751 108.696 2.20697L111.534 4.67366C112.228 5.27613 113.009 5.76894 113.851 6.13497L118.587 8.19282C121.874 9.62112 124 12.8634 124 16.4472V31.8069C124 35.76 121.42 39.2504 117.641 40.4106L104.79 44.3557C102.837 44.9552 101.147 46.2011 99.9958 47.8887L97.7353 51.2033C96.5299 52.9709 95.1912 54.6438 93.7308 56.2074L91.3262 58.7821C88.0178 62.3243 82.4985 62.6104 78.8417 59.4292L72.2696 53.7118C69.0222 50.8867 64.229 50.7565 60.833 53.401L53.8687 58.824C50.1933 61.686 44.9413 61.2705 41.7617 57.8661L39.8223 55.7895C36.2842 52.0013 30.1022 52.6611 27.4433 57.1106C24.9487 61.2852 19.2808 62.1784 15.6233 58.9731L3.06831 47.9707C1.11827 46.2618 0 43.7949 0 41.202Z" fill="url(#paint0_linear_149_566)"/>
</g>
<g style="mix-blend-mode:overlay">
<path d="M8.84863 8.34415H30.575V14.2246H18.9038V21.0029H29.1385V27.4669H18.9038V40.0808H8.84863V8.34415Z" fill="black" fill-opacity="0.6"/>
<path d="M35.7597 8.34415H45.4782L57.5533 24.2798V8.34415H65.2294V40.0808H55.264L43.3684 23.2025V40.0808H35.7597V8.34415Z" fill="black" fill-opacity="0.6"/>
<path d="M99.3783 37.7802C99.3783 39.0508 98.3483 40.0808 97.0778 40.0808H86.9557C84.7262 40.0808 82.6987 39.6618 80.8732 38.8239C79.0477 37.9859 77.4841 36.8413 76.1823 35.3899C74.8955 33.9384 73.9005 32.2327 73.1972 30.2725C72.4939 28.3123 72.1423 26.2175 72.1423 23.988C72.1423 21.7735 72.4939 19.6936 73.1972 17.7484C73.9005 15.7883 74.8955 14.0825 76.1823 12.6311C77.4841 11.1647 79.0477 10.0125 80.8732 9.1746C82.6987 8.32171 84.7262 7.89526 86.9557 7.89526H97.0778C98.3483 7.89526 99.3783 8.92526 99.3783 10.1958C99.3783 11.4664 98.3483 12.4964 97.0778 12.4964H86.9557C85.3696 12.4964 83.9407 12.8031 82.6688 13.4166C81.4119 14.0151 80.342 14.8381 79.4592 15.8855C78.5914 16.918 77.918 18.13 77.4392 19.5215C76.9754 20.9131 76.7434 22.4019 76.7434 23.988C76.7434 25.5741 76.9754 27.0704 77.4392 28.4769C77.918 29.8685 78.5914 31.088 79.4592 32.1354C80.342 33.1678 81.4119 33.9833 82.6688 34.5819C83.9407 35.1804 85.3696 35.4796 86.9557 35.4796H97.0778C98.3483 35.4796 99.3783 36.5096 99.3783 37.7802Z" fill="black" fill-opacity="0.6"/>
<path d="M115.859 17.0975C115.859 18.3619 114.834 19.3869 113.569 19.3869H102.247C100.983 19.3869 99.9577 18.3619 99.9577 17.0975C99.9577 15.8332 100.983 14.8082 102.247 14.8082H113.569C114.834 14.8082 115.859 15.8332 115.859 17.0975ZM115.859 30.8897C115.859 32.1603 114.829 33.1903 113.558 33.1903H102.258C100.988 33.1903 99.9577 32.1603 99.9577 30.8897C99.9577 29.6192 100.988 28.5892 102.258 28.5892H113.558C114.829 28.5892 115.859 29.6192 115.859 30.8897Z" fill="black" fill-opacity="0.6"/>
</g>
<defs>
<linearGradient id="paint0_linear_149_566" x1="60.1212" y1="4.63006e-07" x2="60.1212" y2="65.1313" gradientUnits="userSpaceOnUse">
<stop stop-color="#E86FAF"/>
<stop offset="1" stop-color="#6573FC"/>
</linearGradient>
</defs>
</svg>
