<svg width="31" height="31" viewBox="0 0 31 31" fill="none" xmlns="http://www.w3.org/2000/svg">
<path fill-rule="evenodd" clip-rule="evenodd" d="M15.5 31C13.3558 31 11.3408 30.5929 9.455 29.7786C7.56917 28.9654 5.92875 27.8612 4.53375 26.4662C3.13875 25.0712 2.03463 23.4308 1.2214 21.545C0.407133 19.6592 0 17.6442 0 15.5C0 13.3558 0.407133 11.3408 1.2214 9.455C2.03463 7.56917 3.13875 5.92875 4.53375 4.53375C5.92875 3.13875 7.56917 2.03412 9.455 1.21985C11.3408 0.406617 13.3558 0 15.5 0C17.6442 0 19.6592 0.406617 21.545 1.21985C23.4308 2.03412 25.0712 3.13875 26.4662 4.53375C27.8612 5.92875 28.9654 7.56917 29.7786 9.455C30.5929 11.3408 31 13.3558 31 15.5C31 17.6442 30.5929 19.6592 29.7786 21.545C28.9654 23.4308 27.8612 25.0712 26.4662 26.4662C25.0712 27.8612 23.4308 28.9654 21.545 29.7786C19.6592 30.5929 17.6442 31 15.5 31ZM16.6052 22.8036C16.3076 23.1012 15.9392 23.25 15.5 23.25C15.0608 23.25 14.693 23.1079 14.3964 22.8237C14.0988 22.5396 13.95 22.1779 13.95 21.7387V17.05H9.3C8.86083 17.05 8.49245 16.9012 8.19485 16.6036C7.89828 16.307 7.75 15.9392 7.75 15.5C7.75 15.0608 7.89208 14.6924 8.17625 14.3948C8.46042 14.0983 8.82208 13.95 9.26125 13.95H13.95V9.3C13.95 8.86083 14.0988 8.49245 14.3964 8.19485C14.693 7.89828 15.0608 7.75 15.5 7.75C15.9392 7.75 16.3076 7.89208 16.6052 8.17625C16.9017 8.46042 17.05 8.82208 17.05 9.26125V13.95H21.7C22.1392 13.95 22.507 14.0983 22.8036 14.3948C23.1012 14.6924 23.25 15.0608 23.25 15.5C23.25 15.9392 23.1079 16.307 22.8237 16.6036C22.5396 16.9012 22.1779 17.05 21.7387 17.05H17.05V21.7C17.05 22.1392 16.9017 22.507 16.6052 22.8036Z" fill="#FF285C" fill-opacity="0.75"/>
</svg>
